<svg width="54" height="54" viewBox="0 0 54 54" fill="none" xmlns="http://www.w3.org/2000/svg">
<rect x="0.417664" y="0.295914" width="53.0641" height="53.0641" rx="26.532" fill="black"/>
<path d="M43.7613 26.9355C42.2716 23.3398 38.9463 19.3228 33.8599 17.3197C33.8599 17.3097 33.8616 17.3005 33.8616 17.2896C33.8616 15.1475 32.8827 13.2307 31.3486 11.9621C31.4868 11.1188 32.2161 10.4724 33.0979 10.4724C33.7921 10.4724 34.354 9.90964 34.354 9.21628C34.354 8.52292 33.7921 7.96019 33.0979 7.96019C31.2707 7.96019 29.719 9.11244 29.101 10.7253C28.4227 10.5017 27.7009 10.3777 26.9506 10.3777C26.2078 10.3777 25.4952 10.4983 24.8253 10.7152C24.2048 9.10826 22.6539 7.96019 20.8301 7.96019C20.1367 7.96019 19.574 8.52292 19.574 9.21628C19.574 9.90964 20.1367 10.4724 20.8301 10.4724C21.7052 10.4724 22.4312 11.1088 22.5786 11.9412C21.0285 13.2106 20.0388 15.1358 20.0388 17.2904C20.0388 17.3013 20.0404 17.3105 20.0404 17.3206C14.9541 19.3245 11.6288 23.3398 10.1391 26.9364C8.42158 31.079 8.81432 35.1135 11.1649 37.4624C12.1396 38.4371 13.837 38.9965 15.8225 38.9965C16.7428 38.9965 17.658 38.8692 18.5532 38.6465C20.321 43.0261 23.452 45.6957 26.9514 45.6957C30.43 45.6957 33.5769 43.0252 35.348 38.6565C36.2532 38.8743 37.171 38.9965 38.0796 38.9965C40.065 38.9965 41.7616 38.4371 42.738 37.4624C45.0844 35.1135 45.4771 31.0781 43.7613 26.9355ZM26.9498 12.8891C29.1119 12.8891 30.9064 14.4609 31.2724 16.5209C29.9284 16.2144 28.4922 16.0335 26.9498 16.0335C25.4073 16.0335 23.9712 16.2144 22.6271 16.5209C22.9931 14.4609 24.7868 12.8891 26.9498 12.8891ZM26.7831 31.5981C26.8384 31.5981 26.8945 31.6032 26.9498 31.6032C27.0134 31.6032 27.077 31.5981 27.1415 31.5965C27.5426 32.5009 28.0124 33.3207 28.5433 34.0534C27.505 34.1061 26.4532 34.1028 25.3855 34.0467C25.8838 33.3583 26.3644 32.5486 26.7831 31.5981ZM12.9402 35.6855C11.3223 34.0676 11.1389 31.0832 12.4595 27.8969C14.1494 23.8179 18.5917 19.0933 25.6945 18.5892V24.1571C25.6945 28.3382 24.4954 31.6953 22.2285 33.8675C19.7674 36.2273 16.9278 36.4827 15.8216 36.4827C14.2825 36.4835 13.3078 36.0539 12.9402 35.6855ZM26.9498 43.1827C25.6342 43.1827 24.3497 42.5462 23.2317 41.4199C24.4769 41.564 25.7205 41.646 26.9498 41.646C28.1883 41.646 29.4427 41.5606 30.7005 41.4141C29.58 42.5496 28.2888 43.1827 26.9498 43.1827ZM32.6281 38.5921C28.8306 39.2971 25.0656 39.2971 21.2806 38.5971C21.1533 38.3367 21.0302 38.0687 20.9155 37.7924C21.7085 37.4063 22.4647 36.9382 23.1597 36.3839C24.4468 36.5312 25.7213 36.6242 26.9489 36.6242C28.2167 36.6242 29.4896 36.5363 30.749 36.3939C31.4516 36.96 32.2002 37.4272 32.979 37.8057C32.8685 38.0771 32.7512 38.3383 32.6281 38.5921ZM40.9594 35.6855C40.5918 36.0531 39.6154 36.4835 38.0779 36.4835C34.4109 36.4835 28.2059 33.8876 28.2059 24.1579V18.5901C35.307 19.0942 39.7502 23.8188 41.4409 27.8977C42.7606 31.0832 42.5755 34.0676 40.9594 35.6855Z" fill="white"/>
</svg>
